HIERARCHY
ROOT mixamorig:Hips
{
	OFFSET 0.000000 201.639420 0.000000
	CHANNELS 6 Xposition Yposition Zposition Xrotation Yrotation Zrotation
	JOINT mixamorig:Spine
	{
		OFFSET 0.006200 19.524994 -2.481800
		CHANNELS 3 Xrotation Yrotation Zrotation
		JOINT mixamorig:Spine1
		{
			OFFSET -0.000900 22.835007 -2.825400
			CHANNELS 3 Xrotation Yrotation Zrotation
			JOINT mixamorig:Spine2
			{
				OFFSET -0.020600 26.552490 -3.193300
				CHANNELS 3 Xrotation Yrotation Zrotation
				JOINT mixamorig:Neck
				{
					OFFSET -0.060000 30.701813 1.352200
					CHANNELS 3 Xrotation Yrotation Zrotation
					JOINT mixamorig:Head
					{
						OFFSET -0.087200 22.547607 3.670900
						CHANNELS 3 Xrotation Yrotation Zrotation
						JOINT mixamorig:HeadTop_End
						{
							OFFSET -0.830600 40.355194 7.893500
							CHANNELS 3 Xrotation Yrotation Zrotation
							End Site
							{
								OFFSET 0.000000 30.592346 0.000000
							}
						}
						JOINT mixamorig:RightEye
						{
							OFFSET -6.302100 18.118591 16.197100
							CHANNELS 3 Xrotation Yrotation Zrotation
							End Site
							{
								OFFSET 0.000000 30.592346 0.000000
							}
						}
						JOINT mixamorig:LeftEye
						{
							OFFSET 6.741500 18.382690 16.401899
							CHANNELS 3 Xrotation Yrotation Zrotation
							End Site
							{
								OFFSET 0.000000 30.592346 0.000000
							}
						}
					}
				}
				JOINT mixamorig:LeftShoulder
				{
					OFFSET 11.924900 18.230499 1.425400
					CHANNELS 3 Xrotation Yrotation Zrotation
					JOINT mixamorig:LeftArm
					{
						OFFSET 25.435989 -0.697632 -5.229300
						CHANNELS 3 Xrotation Yrotation Zrotation
						JOINT mixamorig:LeftForeArm
						{
							OFFSET 54.684776 0.000000 0.000000
							CHANNELS 3 Xrotation Yrotation Zrotation
							JOINT mixamorig:LeftHand
							{
								OFFSET 55.098175 0.000000 0.000000
								CHANNELS 3 Xrotation Yrotation Zrotation
								JOINT mixamorig:LeftHandMiddle1
								{
									OFFSET 23.369751 0.000000 0.000000
									CHANNELS 3 Xrotation Yrotation Zrotation
									JOINT mixamorig:LeftHandMiddle2
									{
										OFFSET 6.378677 0.000000 0.000000
										CHANNELS 3 Xrotation Yrotation Zrotation
										JOINT mixamorig:LeftHandMiddle3
										{
											OFFSET 6.148331 0.000000 0.000000
											CHANNELS 3 Xrotation Yrotation Zrotation
											JOINT mixamorig:LeftHandMiddle4
											{
												OFFSET 6.582504 0.000000 0.000000
												CHANNELS 3 Xrotation Yrotation Zrotation
												End Site
												{
													OFFSET -1.168900 6.395691 1.028606
												}
											}
										}
									}
								}
								JOINT mixamorig:LeftHandThumb1
								{
									OFFSET 7.235672 -3.848206 5.434273
									CHANNELS 3 Xrotation Yrotation Zrotation
									JOINT mixamorig:LeftHandThumb2
									{
										OFFSET 6.568451 -3.792297 3.792300
										CHANNELS 3 Xrotation Yrotation Zrotation
										JOINT mixamorig:LeftHandThumb3
										{
											OFFSET 6.063080 -3.500519 3.500518
											CHANNELS 3 Xrotation Yrotation Zrotation
											JOINT mixamorig:LeftHandThumb4
											{
												OFFSET 4.793182 -2.767334 2.767349
												CHANNELS 3 Xrotation Yrotation Zrotation
												End Site
												{
													OFFSET 0.101639 6.054260 1.275483
												}
											}
										}
									}
								}
								JOINT mixamorig:LeftHandIndex1
								{
									OFFSET 23.101074 -0.309540 4.992809
									CHANNELS 3 Xrotation Yrotation Zrotation
									JOINT mixamorig:LeftHandIndex2
									{
										OFFSET 6.226883 0.000000 0.000000
										CHANNELS 3 Xrotation Yrotation Zrotation
										JOINT mixamorig:LeftHandIndex3
										{
											OFFSET 6.094330 0.000000 0.000000
											CHANNELS 3 Xrotation Yrotation Zrotation
											JOINT mixamorig:LeftHandIndex4
											{
												OFFSET 5.482605 0.000000 0.000000
												CHANNELS 3 Xrotation Yrotation Zrotation
												End Site
												{
													OFFSET -1.427902 5.233032 0.797164
												}
											}
										}
									}
								}
								JOINT mixamorig:LeftHandRing1
								{
									OFFSET 22.299240 0.021149 -3.964172
									CHANNELS 3 Xrotation Yrotation Zrotation
									JOINT mixamorig:LeftHandRing2
									{
										OFFSET 6.321869 0.000000 0.000000
										CHANNELS 3 Xrotation Yrotation Zrotation
										JOINT mixamorig:LeftHandRing3
										{
											OFFSET 5.899796 0.000000 0.000000
											CHANNELS 3 Xrotation Yrotation Zrotation
											JOINT mixamorig:LeftHandRing4
											{
												OFFSET 6.517899 0.000000 0.000000
												CHANNELS 3 Xrotation Yrotation Zrotation
												End Site
												{
													OFFSET -1.637299 6.232208 0.980890
												}
											}
										}
									}
								}
								JOINT mixamorig:LeftHandPinky1
								{
									OFFSET 20.463791 -0.302338 -8.562233
									CHANNELS 3 Xrotation Yrotation Zrotation
									JOINT mixamorig:LeftHandPinky2
									{
										OFFSET 6.908646 0.000000 0.000000
										CHANNELS 3 Xrotation Yrotation Zrotation
										JOINT mixamorig:LeftHandPinky3
										{
											OFFSET 4.622849 0.000000 0.000000
											CHANNELS 3 Xrotation Yrotation Zrotation
											JOINT mixamorig:LeftHandPinky4
											{
												OFFSET 5.216080 0.000000 0.000000
												CHANNELS 3 Xrotation Yrotation Zrotation
												End Site
												{
													OFFSET -0.606308 5.116241 0.814926
												}
											}
										}
									}
								}
							}
						}
					}
				}
				JOINT mixamorig:RightShoulder
				{
					OFFSET -12.001300 18.284088 1.348900
					CHANNELS 3 Xrotation Yrotation Zrotation
					JOINT mixamorig:RightArm
					{
						OFFSET -25.308500 -0.751312 -5.164599
						CHANNELS 3 Xrotation Yrotation Zrotation
						JOINT mixamorig:RightForeArm
						{
							OFFSET -54.684429 0.000000 0.000000
							CHANNELS 3 Xrotation Yrotation Zrotation
							JOINT mixamorig:RightHand
							{
								OFFSET -55.150291 0.000000 0.000000
								CHANNELS 3 Xrotation Yrotation Zrotation
								JOINT mixamorig:RightHandMiddle1
								{
									OFFSET -23.317566 0.000000 0.000000
									CHANNELS 3 Xrotation Yrotation Zrotation
									JOINT mixamorig:RightHandMiddle2
									{
										OFFSET -6.378403 0.000000 0.000000
										CHANNELS 3 Xrotation Yrotation Zrotation
										JOINT mixamorig:RightHandMiddle3
										{
											OFFSET -6.148193 0.000000 0.000000
											CHANNELS 3 Xrotation Yrotation Zrotation
											JOINT mixamorig:RightHandMiddle4
											{
												OFFSET -6.583389 0.000000 0.000000
												CHANNELS 3 Xrotation Yrotation Zrotation
												End Site
												{
													OFFSET 1.171692 6.395905 1.029786
												}
											}
										}
									}
								}
								JOINT mixamorig:RightHandThumb1
								{
									OFFSET -7.190521 -3.860474 5.435846
									CHANNELS 3 Xrotation Yrotation Zrotation
									JOINT mixamorig:RightHandThumb2
									{
										OFFSET -6.567429 -3.791718 3.791708
										CHANNELS 3 Xrotation Yrotation Zrotation
										JOINT mixamorig:RightHandThumb3
										{
											OFFSET -6.062469 -3.500153 3.500166
											CHANNELS 3 Xrotation Yrotation Zrotation
											JOINT mixamorig:RightHandThumb4
											{
												OFFSET -4.792618 -2.767029 2.767022
												CHANNELS 3 Xrotation Yrotation Zrotation
												End Site
												{
													OFFSET -0.100327 6.053253 1.276754
												}
											}
										}
									}
								}
								JOINT mixamorig:RightHandIndex1
								{
									OFFSET -23.048981 -0.310791 4.992554
									CHANNELS 3 Xrotation Yrotation Zrotation
									JOINT mixamorig:RightHandIndex2
									{
										OFFSET -6.227539 0.000000 0.000000
										CHANNELS 3 Xrotation Yrotation Zrotation
										JOINT mixamorig:RightHandIndex3
										{
											OFFSET -6.095047 0.000000 0.000000
											CHANNELS 3 Xrotation Yrotation Zrotation
											JOINT mixamorig:RightHandIndex4
											{
												OFFSET -5.484772 0.000000 0.000000
												CHANNELS 3 Xrotation Yrotation Zrotation
												End Site
												{
													OFFSET 1.420593 5.237305 0.797056
												}
											}
										}
									}
								}
								JOINT mixamorig:RightHandRing1
								{
									OFFSET -22.246323 0.020569 -3.963762
									CHANNELS 3 Xrotation Yrotation Zrotation
									JOINT mixamorig:RightHandRing2
									{
										OFFSET -6.322128 0.000000 0.000000
										CHANNELS 3 Xrotation Yrotation Zrotation
										JOINT mixamorig:RightHandRing3
										{
											OFFSET -5.900024 0.000000 0.000000
											CHANNELS 3 Xrotation Yrotation Zrotation
											JOINT mixamorig:RightHandRing4
											{
												OFFSET -6.518356 0.000000 0.000000
												CHANNELS 3 Xrotation Yrotation Zrotation
												End Site
												{
													OFFSET 1.636398 6.232697 0.982186
												}
											}
										}
									}
								}
								JOINT mixamorig:RightHandPinky1
								{
									OFFSET -20.411011 -0.303314 -8.561701
									CHANNELS 3 Xrotation Yrotation Zrotation
									JOINT mixamorig:RightHandPinky2
									{
										OFFSET -6.907349 0.000000 0.000000
										CHANNELS 3 Xrotation Yrotation Zrotation
										JOINT mixamorig:RightHandPinky3
										{
											OFFSET -4.623840 0.000000 0.000000
											CHANNELS 3 Xrotation Yrotation Zrotation
											JOINT mixamorig:RightHandPinky4
											{
												OFFSET -5.218353 0.000000 0.000000
												CHANNELS 3 Xrotation Yrotation Zrotation
												End Site
												{
													OFFSET 0.602097 5.118835 0.816273
												}
											}
										}
									}
								}
							}
						}
					}
				}
			}
		}
	}
	JOINT mixamorig:LeftUpLeg
	{
		OFFSET 18.168400 -13.561905 -0.039000
		CHANNELS 3 Xrotation Yrotation Zrotation
		JOINT mixamorig:LeftLeg
		{
			OFFSET 0.577358 -80.825211 -3.695000
			CHANNELS 3 Xrotation Yrotation Zrotation
			JOINT mixamorig:LeftFoot
			{
				OFFSET -0.577356 -83.370262 -6.520700
				CHANNELS 3 Xrotation Yrotation Zrotation
				JOINT mixamorig:LeftToeBase
				{
					OFFSET 0.750401 -20.798306 25.135401
					CHANNELS 3 Xrotation Yrotation Zrotation
					JOINT mixamorig:LeftToe_End
					{
						OFFSET -0.000500 0.001200 19.917799
						CHANNELS 3 Xrotation Yrotation Zrotation
						End Site
						{
							OFFSET 0.000000 19.917805 0.000000
						}
					}
				}
			}
		}
	}
	JOINT mixamorig:RightUpLeg
	{
		OFFSET -18.162500 -13.585098 -0.041000
		CHANNELS 3 Xrotation Yrotation Zrotation
		JOINT mixamorig:RightLeg
		{
			OFFSET -0.595024 -80.945297 -3.631900
			CHANNELS 3 Xrotation Yrotation Zrotation
			JOINT mixamorig:RightFoot
			{
				OFFSET 0.595024 -83.218193 -6.561200
				CHANNELS 3 Xrotation Yrotation Zrotation
				JOINT mixamorig:RightToeBase
				{
					OFFSET -0.753601 -20.807106 25.115000
					CHANNELS 3 Xrotation Yrotation Zrotation
					JOINT mixamorig:RightToe_End
					{
						OFFSET 0.000299 0.001700 19.918200
						CHANNELS 3 Xrotation Yrotation Zrotation
						End Site
						{
							OFFSET 0.000000 19.918203 0.000000
						}
					}
				}
			}
		}
	}
}
MOTION
Frames: 5
Frame Time: 0.033333
161.098785 171.319794 96.885551 50.680574 256.958164 54.886683 13.378295 -8.028716 -24.674055 1.936375 -0.868006 0.034214 1.975388 -0.774805 0.033460 -3.023846 2.188703 -0.553097 2.366761 8.237007 10.259262 0.000001 0.000001 0.000000 0.000001 0.000001 0.000000 0.000001 0.000001 0.000000 0.437874 -4.917052 -21.399432 -8.344151 -57.801678 -30.073022 0.000062 -75.100177 0.000055 25.683337 14.985054 9.149435 1.209441 4.633497 -19.106711 0.002801 0.197169 -1.634104 0.067806 0.965880 -8.030615 -0.000001 0.000002 0.000004 3.259147 10.875047 2.069644 1.207946 -0.209779 -1.051004 -2.788960 -2.288324 3.121311 -0.000002 0.000001 -0.000002 -1.241784 -2.292309 -19.883217 -0.000005 0.000010 -0.000009 0.074052 1.009194 -8.393483 -0.000002 -0.000001 0.000001 4.082283 12.088459 -20.142540 0.004540 0.250730 -2.078076 0.070616 0.985599 -8.195787 0.000001 0.000001 0.000002 10.814656 25.248457 -23.772762 -0.017586 -4.012007 -0.861068 0.057165 0.887273 -7.373200 -0.000001 0.000001 0.000002 -0.092499 -3.227615 -1.970142 -59.643302 -21.284181 33.234662 0.000043 104.616006 -0.000052 34.047639 -6.609296 -21.751697 0.087073 1.725899 -3.135160 0.005724 -0.282597 2.319541 -2.942688 -0.494433 2.831955 0.000004 -0.000000 -0.000000 0.885140 -14.247903 -14.216294 2.049903 0.395789 1.665283 -4.598487 6.012772 -2.875279 -0.000003 0.000001 -0.000002 0.547441 10.595818 -2.390109 0.000009 -0.005738 0.047087 0.009886 0.371364 -3.048765 -0.000003 0.000001 -0.000002 0.100669 -7.494646 0.322529 0.074849 -1.019661 8.397849 -3.624405 -1.929976 10.226419 -0.000001 -0.000001 -0.000001 2.688092 -18.520469 7.545243 1.042594 -3.667316 31.731215 0.305744 -2.043032 17.020724 0.000003 0.000003 0.000003 2.105871 -12.592475 5.414744 49.270041 -0.719196 -3.216671 -40.476394 10.433223 -9.151706 -1.292103 -0.000003 -0.000002 0.000000 0.000000 -0.000000 -35.866140 14.072390 -9.233012 20.297014 -11.063185 -9.312509 -12.082794 -23.920523 -0.736981 7.295793 -0.000045 -0.000020 -0.000002 0.000000 -0.000001 
162.128555 169.044266 100.797592 43.784596 254.112516 50.043129 15.508119 -4.753434 -24.669918 2.802068 -0.385845 -1.664964 2.811910 -0.305488 -1.669539 -4.252416 1.821792 -1.156886 0.883468 5.435614 11.439499 -0.000001 -0.000000 -0.000000 -0.000001 -0.000000 -0.000000 -0.000001 -0.000000 -0.000000 0.594929 -3.401554 -23.668649 -12.772946 -55.151097 -32.677964 0.000026 -81.133713 0.000029 27.029657 14.815061 11.057500 1.028235 4.645124 -15.347117 0.000492 0.082901 -0.687131 0.063715 0.936446 -7.784388 0.000003 -0.000001 -0.000005 2.801680 11.306998 3.158605 1.207946 -0.209760 -1.050995 -3.064405 -2.776006 3.183980 -0.000002 -0.000000 -0.000001 -0.822605 -2.139128 -15.296323 -0.000011 0.000005 -0.000012 0.074469 1.012008 -8.416986 -0.000000 0.000001 0.000001 3.365731 12.172867 -16.248463 0.001206 0.129312 -1.071603 0.067894 0.966527 -8.036068 -0.000003 -0.000001 0.000002 8.634370 25.659026 -18.537542 -0.017870 -4.033376 -0.684033 0.054518 0.866513 -7.199750 -0.000001 -0.000001 -0.000000 0.080037 -2.788555 0.358201 -55.734832 -28.321407 35.248007 -0.000013 116.171518 0.000005 34.635288 -7.044416 -25.596513 0.260542 2.589301 -6.711518 0.000081 -0.033224 0.272584 -2.541567 -0.209410 1.249196 0.000000 0.000001 -0.000002 0.908706 -15.022649 -14.919321 2.049909 0.396616 1.662074 -4.483046 5.805428 -2.864188 -0.000002 -0.000001 0.000001 1.384532 11.776277 -6.318097 0.000002 -0.000001 0.000019 0.013965 0.441331 -3.623953 0.000002 0.000002 -0.000003 -0.368485 -6.831044 -3.455502 0.023713 -0.574923 4.723118 -3.297676 -1.380248 7.584590 -0.000001 0.000000 0.000001 0.950379 -18.044450 2.011322 0.675369 -2.994173 25.416927 0.199371 -1.656369 13.726372 0.000001 -0.000001 -0.000002 1.470760 -12.794923 3.673742 52.399432 0.695526 -8.965731 -42.306550 8.862164 -6.911216 -1.296026 0.000019 0.000001 0.000000 -0.000000 0.000000 -37.377968 12.705480 -11.298520 19.761843 -11.512510 -8.990645 -8.539727 -20.743983 -1.915369 7.769634 0.000002 -0.000004 0.000002 -0.000002 -0.000002 
162.279343 168.794312 103.898331 39.325685 251.179059 45.099883 18.308093 -2.348373 -20.894008 2.629706 0.080083 -3.589882 2.630845 0.060908 -3.589404 -4.060090 1.930822 -1.738081 -1.479588 5.033645 10.858401 -0.000000 0.000000 -0.000000 -0.000000 0.000000 -0.000000 -0.000000 0.000000 -0.000000 0.658429 -2.872139 -23.364501 -20.585709 -52.091715 -37.807214 -0.000455 -85.640846 -0.000531 28.663138 14.583762 11.463413 0.869974 4.860804 -11.655890 0.000005 -0.000065 -0.000024 0.060702 0.914148 -7.597787 -0.000001 -0.000000 -0.000001 2.497568 11.619549 3.891773 1.207943 -0.209745 -1.050998 -3.342902 -3.273437 3.247284 0.000000 0.000001 0.000002 -0.457198 -1.680023 -11.168578 -0.000000 0.000007 -0.000058 0.074878 1.014741 -8.439933 0.000002 0.000002 -0.000000 2.572726 12.243287 -12.049774 0.000025 0.016675 -0.138163 0.065985 0.952881 -7.921815 0.000001 -0.000001 0.000002 6.043358 25.886292 -12.454825 -0.018069 -4.051125 -0.537024 0.053042 0.854732 -7.101350 0.000000 0.000002 0.000002 0.157863 -1.672423 0.069947 -54.641571 -28.325961 31.061429 -0.000008 114.419896 0.000017 34.102267 -7.299846 -26.077662 0.443187 3.256005 -9.238673 -0.000001 -0.000006 0.000071 -1.828492 0.112579 -0.734973 0.000001 0.000001 -0.000001 0.990985 -15.476567 -15.208970 2.049952 0.397557 1.658421 -4.454774 5.755482 -2.862919 0.000001 0.000001 -0.000001 2.118080 12.701394 -9.285313 0.000008 -0.000007 0.000003 0.017502 0.494117 -4.058025 -0.000002 0.000002 -0.000001 -0.644521 -6.335060 -5.960471 0.000772 -0.103784 0.851571 -2.562139 -0.644164 3.826418 0.000003 -0.000001 -0.000001 -0.129540 -17.655610 -1.510076 0.367932 -2.235962 18.686226 0.075628 -1.024872 8.441141 -0.000002 0.000001 0.000000 2.816628 -7.307647 5.048420 52.499628 -2.008950 -9.863540 -42.915182 8.008835 -4.789823 -1.288672 -0.000005 -0.000006 0.000000 -0.000000 -0.000000 -37.625726 7.520451 -12.771022 18.272624 -10.819848 -5.898401 -10.476712 -14.161759 -3.708323 8.557524 -0.000010 -0.000013 -0.000000 0.000001 0.000002 
161.615601 170.653610 105.105751 38.062291 250.814874 43.175135 19.005778 -2.916808 -18.998139 2.010760 0.057666 -3.442099 2.010647 0.007628 -3.441735 -3.100139 2.490508 -2.391795 -2.349619 6.937561 9.694641 -0.000001 -0.000000 -0.000000 -0.000001 -0.000000 -0.000000 -0.000001 -0.000000 -0.000000 0.691165 -2.485441 -21.763069 -31.048380 -47.315657 -44.949482 -0.003960 -88.560629 -0.003986 29.912619 14.894488 10.634154 0.688851 5.032059 -8.446116 0.000020 -0.000072 -0.000042 0.059635 0.906158 -7.531106 0.000003 0.000002 0.000001 2.339938 11.808087 4.285601 1.207967 -0.209685 -1.050987 -3.543105 -3.634337 3.293121 0.000000 0.000003 -0.000002 -0.231239 -1.252315 -7.779514 0.000013 0.000018 -0.000009 0.075818 1.021142 -8.493553 -0.000000 0.000006 -0.000003 1.813850 12.222502 -8.196979 0.000004 -0.000012 0.000040 0.065055 0.946081 -7.865008 -0.000001 -0.000003 0.000001 3.546139 25.831350 -6.669088 -0.018110 -4.056673 -0.491033 0.052709 0.852117 -7.079466 0.000001 -0.000002 0.000001 0.082746 -0.945249 -3.441108 -55.146063 -21.118749 25.690370 -0.000092 100.875221 0.000103 32.569883 -7.144652 -23.343983 0.546907 3.648393 -10.112353 0.000003 -0.000001 0.000023 -1.003958 0.305098 -2.185973 0.000002 -0.000001 -0.000003 1.221964 -15.595537 -14.964820 2.050010 0.397876 1.657286 -4.466610 5.777681 -2.862310 -0.000003 -0.000000 0.000000 2.528108 13.327247 -10.654329 0.000004 -0.000012 0.000007 0.016259 0.476350 -3.911850 0.000002 -0.000003 -0.000000 -0.693728 -6.126808 -6.526925 0.000009 -0.000008 0.000020 -1.611304 -0.069174 0.449617 -0.000001 -0.000000 0.000001 -0.285568 -17.592517 -2.025350 0.197084 -1.646938 13.646462 0.011187 -0.394978 3.242852 -0.000003 -0.000001 0.000003 4.154789 -4.439091 6.427232 49.838975 -2.652259 -9.828584 -41.569197 6.775228 -4.478008 -1.679773 0.000019 0.000000 0.000000 0.000000 0.000000 -36.462145 4.594571 -14.372697 16.815262 -9.292058 -2.891760 -12.754729 -11.789573 -3.327184 9.303051 0.000019 0.000006 -0.000000 0.000000 0.000000 
160.476593 174.915176 104.089836 42.363565 253.468621 46.619572 19.007727 -6.128534 -17.955136 1.319812 -0.383460 -2.375938 1.320485 -0.422986 -2.368167 -2.290045 2.996084 -2.573820 -2.243052 9.210309 9.390999 0.000001 0.000000 -0.000000 0.000001 0.000000 -0.000000 0.000001 0.000000 -0.000000 0.744572 -1.414418 -18.420851 -41.113613 -44.102228 -51.051119 -0.001472 -87.619238 -0.001368 29.776660 15.991131 9.711817 0.510541 5.087562 -5.910923 -0.000002 -0.000056 -0.000039 0.059811 0.907478 -7.542060 -0.000001 0.000004 -0.000002 2.367550 11.864327 4.273327 1.208004 -0.209617 -1.050970 -3.628506 -3.790735 3.313387 0.000001 -0.000003 0.000001 -0.119580 -0.976913 -5.356082 0.000008 0.000015 -0.000198 0.077561 1.032751 -8.590861 0.000002 -0.000002 0.000003 1.141751 12.085511 -4.895189 -0.000002 -0.000000 -0.000058 0.065268 0.947766 -7.879061 -0.000001 -0.000001 -0.000000 1.304866 25.512343 -1.485807 -0.018105 -4.056676 -0.491029 0.053751 0.860429 -7.148862 0.000000 0.000002 -0.000001 0.044767 -0.157321 -7.445698 -53.842286 -11.646296 20.541044 0.000002 81.996284 0.000017 29.751662 -5.583186 -19.268717 0.506275 3.718552 -8.937110 -0.000001 0.000011 0.000034 -0.214113 0.346863 -2.758645 0.000004 -0.000001 -0.000000 1.635923 -15.317300 -14.081109 2.049281 0.397225 1.658620 -4.514903 5.865349 -2.860454 -0.000002 0.000001 0.000001 2.446584 13.634538 -9.991804 -0.000015 0.000002 0.000088 0.009560 0.365139 -2.997609 0.000004 -0.000001 0.000000 -0.492048 -6.273820 -4.728480 -0.000009 0.000002 0.000048 -0.627305 0.261942 -1.976813 -0.000001 -0.000002 0.000001 0.669553 -17.948626 1.102961 0.145424 -1.417509 11.715335 0.001299 0.134523 -1.103882 -0.000004 0.000001 0.000001 5.543783 -3.670911 6.973311 44.100459 -3.223945 -6.544987 -38.047989 6.934280 -5.566393 -2.362520 0.000032 0.000004 -0.000000 0.000000 0.000000 -34.394698 4.527790 -16.465569 17.515803 -8.989479 0.324663 -9.345144 -16.027269 -2.450933 9.692558 -0.000009 0.000000 -0.000003 -0.000002 -0.000000 
